Coordinates
version=1
nRows=11
nColumns=63
inDegrees=yes

Units are S.I. units (second, meters, Newtons, ...)
If the header above contains a line with 'inDegrees', this indicates whether rotational values are in degrees (yes) or radians (no).

endheader
time	pelvis_tilt	pelvis_list	pelvis_rotation	pelvis_tx	pelvis_ty	pelvis_tz	hip_flexion_r	hip_adduction_r	hip_rotation_r	knee_angle_r	knee_angle_r_beta	ankle_angle_r	subtalar_angle_r	mtp_angle_r	hip_flexion_l	hip_adduction_l	hip_rotation_l	knee_angle_l	knee_angle_l_beta	ankle_angle_l	subtalar_angle_l	mtp_angle_l	L5_S1_Flex_Ext	L5_S1_Lat_Bending	L5_S1_axial_rotation	L4_L5_Flex_Ext	L4_L5_Lat_Bending	L4_L5_axial_rotation	L3_L4_Flex_Ext	L3_L4_Lat_Bending	L3_L4_axial_rotation	L2_L3_Flex_Ext	L2_L3_Lat_Bending	L2_L3_axial_rotation	L1_L2_Flex_Ext	L1_L2_Lat_Bending	L1_L2_axial_rotation	L1_T12_Flex_Ext	L1_T12_Lat_Bending	L1_T12_axial_rotation	Abs_r3	Abs_r2	Abs_r1	Abs_t1	Abs_t2	neck_flexion	neck_bending	neck_rotation	arm_flex_r	arm_add_r	arm_rot_r	elbow_flex_r	pro_sup_r	wrist_flex_r	wrist_dev_r	arm_flex_l	arm_add_l	arm_rot_l	elbow_flex_l	pro_sup_l	wrist_flex_l	wrist_dev_l
      5.16666667	     -7.09485104	     -2.13685487	     86.89740244	      0.11945297	      1.05830279	      0.30401925	      2.68195092	     -6.80889364	    -13.70861389	     13.74903528	      0.23996593	     40.39263771	     16.89456162	      0.00000000	      2.77015160	      4.72882918	     -5.62015635	     12.22739271	      0.21340826	     34.94444158	      9.37664078	      0.00000000	     -0.20838309	     -1.80830503	     -0.67013446	     -0.38698824	     -2.40504569	     -0.71201787	     -0.34235258	     -4.39671285	     -0.71201787	     -0.23816104	     -4.39671285	     -0.58636765	     -0.19350454	     -3.68749562	     -0.54448425	     -0.11907010	     -2.80106449	     -0.50260085	     -1.48845959	    -20.45590817	     -3.72708684	      0.00000000	      0.00000000	     17.47496728	     15.20520220	    -43.73852083	     36.35403965	    -25.62577235	     -8.12405189	     62.58440360	     54.50574357	     -1.44137946	      4.63194021	      1.63957271	    -26.72129307	    117.40921362	     12.72817948	      4.53461462	     -7.65691902	      3.45348705
      5.18333333	     -6.76683558	     -2.47802848	     86.87331620	      0.11879236	      1.05803723	      0.30382628	      2.77989096	     -6.41558391	    -13.74293609	     13.33568462	      0.23275160	     39.97051565	     16.93055225	      0.00000000	      3.10268022	      4.41356417	     -5.43454114	     12.27472626	      0.21423439	     34.85480136	      9.35009471	      0.00000000	     -0.17399963	     -1.74196132	     -0.77528123	     -0.32313472	     -2.31680856	     -0.82373631	     -0.28586400	     -4.23540476	     -0.82373631	     -0.19886418	     -4.23540476	     -0.67837108	     -0.16157606	     -3.55220753	     -0.62991600	     -0.09942339	     -2.69829809	     -0.58146092	     -1.24286199	    -19.70541488	     -4.31188163	      0.00000000	      0.00000000	     17.60266289	     14.92031063	    -43.51790851	     34.54995894	    -24.65180432	     -9.53720571	     66.89695550	     57.33292712	     -1.06511131	      2.50858728	      1.84444509	    -26.23685523	    118.05181885	     12.95135660	      4.85210602	     -7.89508338	      1.92772627
      5.20000000	     -6.61668276	     -2.60368140	     86.66092544	      0.11806579	      1.05799707	      0.30405714	      2.82851558	     -6.27430397	    -13.56529942	     13.16999749	      0.22985982	     39.57145751	     16.98401231	      0.00000000	      3.15981863	      4.37328101	     -4.72440815	     12.14215940	      0.21192066	     34.49714101	      8.60940020	      0.00000000	     -0.18391108	     -1.68954336	     -0.86985608	     -0.34154126	     -2.24709267	     -0.92422209	     -0.30214751	     -4.10795573	     -0.92422209	     -0.21019197	     -4.10795573	     -0.76112407	     -0.17077982	     -3.44531682	     -0.70675807	     -0.10508679	     -2.61710267	     -0.65239206	     -1.31365842	    -19.11245241	     -4.83787857	      0.00000000	      0.00000000	     17.58878814	     14.45908134	    -43.11030642	     33.00958033	    -23.12051432	    -11.95770905	     71.99006469	     72.47160639	     -2.12887421	      1.83585482	      2.39554188	    -25.50821795	    121.28987572	     12.89811446	      4.68535101	     -7.93796955	      0.54203135
      5.21666667	     -6.41542996	     -2.84197477	     86.39547976	      0.11768076	      1.05783137	      0.30393393	      2.97540019	     -6.03706952	    -13.43803436	     12.95814931	      0.22616237	     39.17947473	     17.04861765	      0.00000000	      3.31035495	      4.25743734	     -4.09591891	     12.01222506	      0.20965288	     34.07952837	      7.65529172	      0.00000000	     -0.17556591	     -1.63636533	     -0.91263380	     -0.32604345	     -2.17636589	     -0.96967341	     -0.28843723	     -3.97865866	     -0.96967341	     -0.20065428	     -3.97865866	     -0.79855458	     -0.16303050	     -3.33687618	     -0.74151496	     -0.10031836	     -2.53472989	     -0.68447535	     -1.25404974	    -18.51089187	     -5.07579542	      0.00000000	      0.00000000	     17.33770241	     14.25756076	    -42.71795546	     31.11714669	    -21.98816260	    -13.28652957	     78.05349612	     79.29036320	     -2.77986211	      3.19245756	      2.90625657	    -24.81745938	    124.31772584	     12.82556245	      4.79909393	     -8.13280522	     -0.92973110
      5.23333333	     -6.26351869	     -3.09539003	     86.16512689	      0.11745821	      1.05777782	      0.30398735	      3.16782023	     -5.83235672	    -13.20819253	     12.70185842	      0.22168925	     38.85242924	     17.13944935	      0.00000000	      3.54429301	      4.11580852	     -3.94395312	     12.01297646	      0.20966599	     33.66444647	      7.26106444	      0.00000000	     -0.17120680	     -1.59352856	     -0.92356945	     -0.31794816	     -2.11939298	     -0.98129254	     -0.28127566	     -3.87450534	     -0.98129254	     -0.19567226	     -3.87450534	     -0.80812327	     -0.15898264	     -3.24952344	     -0.75040018	     -0.09782757	     -2.46837574	     -0.69267709	     -1.22291308	    -18.02631375	     -5.13661621	      0.00000000	      0.00000000	     16.79086490	     14.22903127	    -42.41322999	     29.08913938	    -21.14846697	    -13.74820543	     84.80987560	     81.94617466	     -3.89351097	      6.55365801	      3.37937830	    -24.22436857	    126.40735795	     12.62577442	      5.85982203	     -8.47147985	     -2.00775101
      5.25000000	     -6.20910887	     -3.20178571	     85.84852007	      0.11763983	      1.05796599	      0.30421862	      3.34596401	     -5.73528299	    -12.86065924	     12.59295956	      0.21978861	     38.75489581	     17.23478109	      0.00000000	      3.61839104	      4.06022493	     -4.01791536	     11.97759559	      0.20904848	     33.18520590	      6.77822407	      0.00000000	     -0.18544328	     -1.56739938	     -0.87926193	     -0.34438672	     -2.08464117	     -0.93421580	     -0.30466477	     -3.81097484	     -0.93421580	     -0.21194312	     -3.81097484	     -0.76935419	     -0.17220263	     -3.19624081	     -0.71440032	     -0.10596229	     -2.42790163	     -0.65944645	     -1.32460281	    -17.73073521	     -4.89019107	      0.00000000	      0.00000000	     16.13981487	     14.23067816	    -42.12246285	     27.01713291	    -20.28534837	    -13.98437004	     91.82488426	     84.36013791	     -4.61469646	     10.73165933	      4.08319887	    -23.60554895	    130.14316964	     12.14251955	      7.40498809	     -8.72905798	     -2.42971527
      5.26666667	     -6.18267041	     -3.23727740	     85.65874756	      0.11800593	      1.05841807	      0.30460524	      3.47619133	     -5.64969268	    -12.49922282	     12.47597269	      0.21774680	     38.75198289	     17.17817319	      0.00000000	      3.63730201	      3.99580740	     -4.32858435	     11.94151824	      0.20841881	     32.74277621	      6.52988389	      0.00000000	     -0.20314532	     -1.55016772	     -0.80172653	     -0.37726117	     -2.06172306	     -0.85183444	     -0.33374744	     -3.76907779	     -0.85183444	     -0.23217478	     -3.76907779	     -0.70151072	     -0.18864074	     -3.16110201	     -0.65140281	     -0.11607724	     -2.40120979	     -0.60129490	     -1.45104670	    -17.53580724	     -4.45896247	      0.00000000	      0.00000000	     15.33525518	     14.32515803	    -41.84704872	     24.73190154	    -19.44057256	    -14.09069259	     98.62566197	     84.97255915	     -3.98337300	     13.61827116	      5.40478222	    -22.43601899	    143.68826456	     10.85494765	      7.74747175	     -9.12793889	     -2.65942052
      5.28333333	     -6.22723300	     -3.20346944	     85.54265489	      0.11866695	      1.05893868	      0.30530336	      3.61358376	     -5.64592959	    -12.12520904	     12.46337327	      0.21752690	     38.94433048	     17.18447211	      0.00000000	      3.68837064	      3.88037858	     -5.54869128	     12.09168236	      0.21103967	     32.56558138	      7.54836429	      0.00000000	     -0.22729696	     -1.54546456	     -0.73496388	     -0.42211318	     -2.05546786	     -0.78089913	     -0.37342617	     -3.75764252	     -0.78089913	     -0.25977769	     -3.75764252	     -0.64309340	     -0.21106795	     -3.15151133	     -0.59715816	     -0.12987748	     -2.39392460	     -0.55122291	     -1.62355944	    -17.48260416	     -4.08764863	      0.00000000	      0.00000000	     14.51421807	     14.41623552	    -41.53156491	     22.56324462	    -18.51055763	    -13.82072421	    105.44163045	     83.31061527	     -2.96175650	     17.22248205	      6.36889581	    -21.10543282	    160.73572646	      9.10042859	      5.90487578	     -9.42000913	     -2.30616625
      5.30000000	     -6.39770192	     -3.16333705	     85.52201929	      0.11959592	      1.05945065	      0.30577020	      3.73591746	     -5.75808567	    -11.78315473	     12.47390343	      0.21771069	     39.23775508	     17.09428027	      0.00000000	      3.72665720	      3.87529200	     -6.77180796	     12.21723130	      0.21323091	     32.39934057	      8.68097397	      0.00000000	     -0.24310742	     -1.56421507	     -0.66264496	     -0.45147478	     -2.08040604	     -0.70406027	     -0.39940117	     -3.80323251	     -0.70406027	     -0.27784746	     -3.80323251	     -0.57981434	     -0.22574955	     -3.18974736	     -0.53839903	     -0.13891158	     -2.42296914	     -0.49698372	     -1.73649195	    -17.69471368	     -3.68543248	      0.00000000	      0.00000000	     13.66287148	     14.57125003	    -41.43471997	     20.34356399	    -17.50060989	    -13.58174118	    111.37095191	     77.31283215	     -0.16964558	     18.58131435	      6.87233582	    -20.23165547	    174.32106933	      7.37335163	      8.86325275	     -9.94955073	     -1.28652801
      5.31666667	     -6.71965643	     -3.18147093	     85.32390948	      0.12090681	      1.05974847	      0.30613194	      4.02198646	     -6.02907965	    -11.31686170	     12.67599702	      0.22123788	     39.60655474	     17.02450947	      0.00000000	      3.80411014	      4.04625812	     -7.78271119	     12.25462132	      0.21388349	     32.07564378	      9.38527193	      0.00000000	     -0.24413397	     -1.60544916	     -0.53236505	     -0.45338120	     -2.13524739	     -0.56563786	     -0.40108770	     -3.90348910	     -0.56563786	     -0.27902072	     -3.90348910	     -0.46581941	     -0.22670281	     -3.27383193	     -0.43254660	     -0.13949815	     -2.48684075	     -0.39927378	     -1.74382455	    -18.16116203	     -2.96085467	      0.00000000	      0.00000000	     12.93524754	     14.73685201	    -41.70269479	     18.13890611	    -16.33533022	    -13.59964746	    116.57342949	     71.15175227	      3.74055952	     18.45673375	      7.20947369	    -19.93265657	    181.08572506	      6.20056745	     13.58656923	    -10.24667454	     -0.41261543
      5.33333333	     -7.12352219	     -3.28157792	     85.56397671	      0.12171254	      1.05979053	      0.30579024	      4.16568825	     -6.39103203	    -11.32341024	     12.72090597	      0.22202169	     39.90708300	     16.90057212	      0.00000000	      3.92517600	      4.37591124	     -7.92193899	     12.22423460	      0.21335314	     31.75689147	      9.68139962	      0.00000000	     -0.23005730	     -1.65823985	     -0.47653968	     -0.42723941	     -2.20545901	     -0.50632341	     -0.37796114	     -4.03184438	     -0.50632341	     -0.26293249	     -4.03184438	     -0.41697222	     -0.21363121	     -3.38148271	     -0.38718849	     -0.13145474	     -2.56861353	     -0.35740476	     -1.64327629	    -18.75834088	     -2.65037074	      0.00000000	      0.00000000	     12.28176358	     15.05206360	    -42.04190823	     15.85521018	    -15.21678711	    -13.22757312	    121.67050060	     70.67873461	      5.17672184	     16.92625766	      7.36217774	    -20.11617474	    181.61148465	      5.82168090	     13.96485478	    -10.16306144	     -0.27171087
